<?xml version="1.0" encoding="utf-8"?>
<!-- Generator: Adobe Illustrator 24.0.2, SVG Export Plug-In . SVG Version: 6.00 Build 0)  -->
<svg version="1.1" xmlns="http://www.w3.org/2000/svg" xmlns:xlink="http://www.w3.org/1999/xlink" x="0px" y="0px"
	 viewBox="0 0 1366 633" style="enable-background:new 0 0 1366 633;" xml:space="preserve">
<style type="text/css">
	.st0{fill:#FFFFFF;}
</style>
<g id="Layer_3">
	<path class="st0" d="M539.75,93C440.08,93,359,177,359,280.25S440.08,467.5,539.75,467.5s180.75-84,180.75-187.25
		S639.42,93,539.75,93z M372,280.25C372,184.17,447.25,106,539.75,106c1.91,0,3.8,0.03,5.69,0.1c0.79,0.94,2.01,1.52,3.47,1.74
		c-0.07-0.01-0.11-0.01-0.12-0.01c0.05,0.02,0.5,0.08,0.72,0.13c0.48,0.07,0.95,0.17,1.42,0.29c0.93,0.22,1.81,0.52,2.71,0.82
		c-0.02-0.01-0.04-0.02-0.05-0.03c0.06,0.02,0.13,0.04,0.18,0.06c-0.03-0.01-0.06-0.01-0.09-0.02c0.13,0.05,0.26,0.11,0.39,0.17
		c0.37,0.17,0.73,0.35,1.09,0.53c0.42,0.22,0.83,0.45,1.23,0.7c0.17,0.1,0.34,0.22,0.51,0.32c0.03,0.03,0.21,0.15,0.34,0.24
		c-0.06-0.05-0.12-0.09-0.14-0.12c0.02,0.01,0.07,0.04,0.15,0.11c0.05,0.04,0.07,0.06,0.09,0.09c0.01,0,0.01,0.01,0.01,0.01
		c0.01,0,0.01,0,0.01,0v0.01c0.02,0.01,0.03,0.03,0.04,0.03c0.2,0.18,0.41,0.34,0.61,0.52c0.29,0.26,0.58,0.54,0.86,0.82
		c0.13,0.13,0.4,0.44,0.46,0.51c0.01,0.01,0.02,0.01,0.02,0.02c0.25,0.32,0.49,0.66,0.71,1.01c0.21,0.32,0.39,0.67,0.58,1
		c0.03,0.05,0.08,0.14,0.11,0.22c0.01,0.01,0.01,0.02,0.02,0.03c0.01,0.03,0.02,0.06,0.03,0.07c0.03,0.04,0.03,0.05,0.03,0.05
		c0.01,0.05,0.03,0.09,0.05,0.14c0.29,0.78,0.5,1.56,0.67,2.37v-0.06c0,0.02,0.01,0.05,0.01,0.09c0.01,0.16,0.02,0.31,0.03,0.47
		c0.02,0.37,0.02,0.76,0.01,1.13c-0.01,0.23-0.1,0.77-0.1,0.83l0.01-0.01c-0.06,0.32-0.13,0.63-0.23,0.95
		c-0.06,0.17-0.31,0.77-0.31,0.83c-0.05,0.13-0.12,0.25-0.19,0.38c-0.17,0.31-1.03,1.24-1.08,1.58c0.09-0.11,0.19-0.22,0.28-0.32
		c0.01-0.01,0.02-0.02,0.03-0.02c-0.09,0.12-0.28,0.33-0.32,0.38v-0.03c-0.19,0.2-0.38,0.38-0.58,0.58
		c-0.25,0.24-1.35,0.92-1.48,1.24c-0.04,0.02-0.08,0.05-0.12,0.07c-0.24,0.16-0.49,0.32-0.74,0.47c-0.59,0.36-1.19,0.69-1.82,1.01
		c-1.22,0.63-2.49,1.18-3.77,1.71c-0.19,0.08-0.38,0.18-0.58,0.25c0.02-0.01,0.03-0.01,0.05-0.01c-0.03,0.01-0.07,0.03-0.12,0.04
		c-0.06,0.02-0.13,0.04-0.21,0.07c-0.01,0-0.05,0.01-0.07,0.02c-0.68,0.27-1.38,0.53-2.07,0.81c-2.86,1.11-5.76,2.21-8.45,3.67
		c-2.76,1.52-5.32,3.4-7.27,5.79c-2.46,3-3.77,6.41-4.19,10.15c-0.67,5.86,1.35,11.78,4.68,16.8h-11.86v14.5
		C478.3,186.01,445,220.34,445,261.88v113.98c0,29.86,17.22,56.01,42.81,70.09C420.65,423.18,372,357.51,372,280.25z M531.19,447.17
		c-41.78,0-75.75-31.99-75.75-71.31v-60.69h168.12v60.69c0,39.32-33.97,71.31-75.75,71.31H531.19z M534.65,215.41
		c-8.93,4.79-13.56,20.66-13.56,36.39c0,15.72,4.63,31.6,13.56,36.38v17.17h-79.21v-43.47c0-39.33,33.97-71.32,75.75-71.32h3.46
		V215.41z M540.39,223.79c2.58,0,8.87,9.82,8.87,28.01c0,18.18-6.29,28-8.87,28c-2.58,0-8.87-9.82-8.87-28
		C531.52,233.61,537.81,223.79,540.39,223.79z M545.09,305.35v-16.67c9.61-4.07,14.61-20.56,14.61-36.88s-5-32.82-14.61-36.89
		v-24.35h2.72c41.78,0,75.75,31.99,75.75,71.32v43.47H545.09z M549.26,180.56h-17.74v-3.93h17.74V180.56z M590.4,446.38
		c26.02-13.98,43.6-40.35,43.6-70.52V261.88c0-40.95-32.38-74.91-74.3-80.37V166.8h-15.24c-0.22-0.49-0.53-0.95-0.94-1.37
		c-0.3-0.31-0.59-0.62-0.87-0.94c-0.07-0.07-0.13-0.14-0.2-0.22c-0.01,0-0.01,0-0.01-0.01c-0.01-0.02-0.03-0.04-0.05-0.06
		c-0.03-0.02-0.04-0.04-0.05-0.06c-0.49-0.65-0.98-1.3-1.42-1.99c-0.43-0.66-0.84-1.35-1.22-2.06c-0.17-0.32-0.33-0.66-0.5-0.98
		c-0.01-0.02-0.03-0.05-0.04-0.09c-0.01-0.02-0.02-0.05-0.03-0.07c-0.06-0.16-0.13-0.3-0.19-0.46c-0.57-1.44-0.98-2.93-1.26-4.44
		c0,0-0.01-0.03-0.02-0.11c0-0.01,0-0.01,0-0.02c-0.01-0.13-0.04-0.31-0.05-0.48c-0.04-0.4-0.06-0.81-0.07-1.21
		c0-0.34,0-0.69,0.02-1.03c0-0.18,0.01-0.35,0.04-0.52c0-0.01,0.02-0.18,0.03-0.35c-0.01,0.04-0.01,0.06-0.02,0.08
		c0-0.03,0-0.08,0.01-0.15c0.02-0.16,0.03-0.23,0.04-0.23c0,0.03-0.01,0.12-0.02,0.23c0.04-0.21,0.09-0.52,0.1-0.59
		c0.1-0.39,0.19-0.77,0.31-1.15c0.1-0.33,0.22-0.63,0.33-0.96l0.01-0.01c0-0.01,0.01-0.02,0.01-0.03c0.08-0.15,0.16-0.31,0.24-0.47
		c0.34-0.64,0.76-1.23,1.19-1.82l0.01-0.01c0.02-0.02,0.04-0.05,0.06-0.07c0.07-0.07,0.13-0.13,0.15-0.15
		c0.24-0.25,0.48-0.49,0.73-0.73c0.06-0.06,0.56-0.55,0.97-0.88c0,0,0-0.01,0.02-0.02c0.24-0.21,0.44-0.37,0.48-0.34
		c0.04-0.02,0.1-0.05,0.15-0.08c0.29-0.19,0.58-0.38,0.88-0.56c1.22-0.75,2.52-1.4,3.83-1.99c0.62-0.28,1.26-0.55,1.88-0.82
		c0.17-0.06,0.34-0.13,0.5-0.2c0.01-0.01,0.03-0.01,0.04-0.01c0.01-0.01,0.04-0.01,0.05-0.02c0.02-0.01,0.04-0.02,0.06-0.03
		c0.07-0.03,0.14-0.06,0.22-0.09c0.03-0.02,0.05-0.03,0.08-0.04c0.02,0,0.03-0.01,0.05-0.01c0.01,0,0.02-0.01,0.02-0.01
		c0.08-0.03,0.15-0.06,0.22-0.09c1.61-0.63,3.22-1.24,4.81-1.88c2.54-1.02,5.08-2.12,7.33-3.62c2.66-1.77,5.08-3.94,6.6-6.71
		c2.01-3.7,2.46-7.79,1.52-11.85c-0.57-2.45-1.7-4.69-3.22-6.67c79.45,13.67,140.23,85.55,140.23,171.9
		C707.5,358,658.22,424.02,590.4,446.38z"/>
</g>
<g id="Layer_4">
</g>
</svg>
