<?xml version="1.0" encoding="utf-8"?>
<!-- Generator: Adobe Illustrator 24.0.2, SVG Export Plug-In . SVG Version: 6.00 Build 0)  -->
<svg version="1.1" xmlns="http://www.w3.org/2000/svg" xmlns:xlink="http://www.w3.org/1999/xlink" x="0px" y="0px"
	 viewBox="0 0 1366 768" style="enable-background:new 0 0 1366 768;" xml:space="preserve">
<style type="text/css">
	.st0{fill:none;stroke:#FFFFFF;stroke-width:13;stroke-miterlimit:10;}
	.st1{fill:#FFFFFF;}
	.st2{fill:#FFFFFF;stroke:#FFFFFF;stroke-width:17;stroke-miterlimit:10;}
</style>
<g id="Layer_2">
	<ellipse class="st0" cx="716.39" cy="360.87" rx="174.25" ry="180.75"/>
</g>
<g id="Layer_3">
	<path class="st1" d="M861.33,398.78c-0.72-16.4-5.73-29.26-7.75-33.84c-0.01-0.01-0.01-0.02-0.01-0.02
		c-1.76-7.72-7.49-14.02-15.13-15.6l-2.55-0.53c-5.72-23.5-11.1-39.4-13.88-46.97l5.17-2.3c-0.32-0.87-8.21-21.61-25.28-42.52
		c-23.02-28.2-51.86-43.29-83.4-43.66c-34.12-0.4-64.96,15.42-89.18,45.76c-17.95,22.48-25.94,45-26.27,45.94l5.59,2.33
		c-1.29,7.2-3.29,21.01-3.99,40.46l-9.35,2.27c-5.03,1.23-9.32,4.5-12.08,9.25c-0.68,1.16-1.24,2.38-1.7,3.64l-0.41-0.26
		c-0.33,0.62-8.18,15.48-9.14,35.71c-0.84,17.98,3.82,43.51,30.02,65.02c0.01,0.01,0.02,0.02,0.03,0.03
		c0.91,0.95,1.92,1.81,3.01,2.56c3.13,2.17,6.68,3.29,10.3,3.29c1.41,0,2.83-0.17,4.24-0.51l25.48-6.2
		c5.03-1.22,9.32-4.5,12.08-9.24c2.76-4.74,3.67-10.37,2.55-15.85l-15.88-77.69c-2.31-11.31-12.64-18.47-23.02-15.94l-5.51,1.34
		c0.69-15.48,2.22-26.98,3.35-33.72l3.31,1.38c0.27-0.78,27.91-77.54,95.32-77.54c0.34,0,0.69,0,1.03,0.01
		c25.86,0.3,48.78,12.34,68.11,35.78c14.93,18.1,22.01,36.53,22.08,36.7l3.81-1.69c2.44,6.69,7.08,20.37,12.12,40.25l-11.61-2.4
		c-10.44-2.16-20.55,5.35-22.53,16.74l-13.59,78.2c-0.96,5.52,0.11,11.11,3.01,15.75c2.9,4.64,7.28,7.77,12.34,8.82l25.65,5.3
		c1.21,0.25,2.42,0.37,3.6,0.37c6.56,0,12.6-3.67,16.12-9.5C858.25,439.09,862.07,415.63,861.33,398.78z M580.03,399.22
		c0.25-5.85,1.16-11.25,2.3-15.87l12.48,61.09C584.27,431.42,579.3,416.29,580.03,399.22z M622.54,352.53
		c0.82-0.2,1.64-0.3,2.46-0.3c2.1,0,4.16,0.65,5.98,1.91c2.52,1.75,4.28,4.47,4.92,7.65l15.88,77.68c0.65,3.18,0.13,6.45-1.48,9.2
		c-1.6,2.76-4.09,4.66-7.02,5.38l-25.48,6.19c-2.56,0.62-5.19,0.26-7.49-1.04c-0.32-0.17-0.64-0.36-0.95-0.57
		c-0.75-0.52-1.44-1.14-2.05-1.82c-1.43-1.6-2.43-3.6-2.88-5.83l-15.88-77.68c-0.65-3.18-0.13-6.45,1.48-9.2
		c1.6-2.76,4.09-4.66,7.02-5.37L622.54,352.53z M819.19,460.17l-25.65-5.3c-2.94-0.61-5.49-2.42-7.17-5.12
		c-1.69-2.7-2.3-5.94-1.75-9.15l13.59-78.19c1.02-5.85,5.73-9.94,11-9.94c0.69,0,1.39,0.07,2.09,0.21l15.42,3.19l0.58,0.12h0.01
		l9.64,1.99c4.53,0.93,7.9,4.72,8.85,9.33c0.03,0.18,0.06,0.35,0.1,0.54c-0.01,0.01,0,0.02,0,0.02c0.23,1.41,0.23,2.9-0.03,4.39
		l-13.58,78.19c-0.22,1.27-0.61,2.46-1.16,3.54c-1.36,2.72-3.61,4.76-6.26,5.74C823.09,460.39,821.15,460.58,819.19,460.17z
		 M842.16,440.87l9.5-54.64c0.8,4.01,1.41,8.51,1.61,13.3C853.88,414.93,850.17,428.76,842.16,440.87z"/>
	<path class="st2" d="M599.33,354.27"/>
	<path class="st1" d="M836.36,359l-0.56,0.14c-0.03-0.09-0.04-0.18-0.07-0.27L836.36,359z"/>
	<path class="st1" d="M600.75,462.8l-0.03,0.04c-0.35-0.17-0.69-0.36-1.03-0.58c-0.82-0.52-1.56-1.14-2.22-1.83
		C598.54,461.24,599.63,462.02,600.75,462.8z"/>
	<path class="st1" d="M840.52,457.61c-1.47,2.74-3.92,4.79-6.79,5.77l-0.13-0.18C836.04,461.39,838.35,459.53,840.52,457.61z"/>
	<path class="st1" d="M856.56,370.93c-0.16-0.29-0.24-0.44-0.25-0.46l0.14-0.08C856.48,370.57,856.52,370.74,856.56,370.93z"/>
</g>
</svg>
