<?xml version="1.0" encoding="utf-8"?>
<!-- Generator: Adobe Illustrator 24.0.2, SVG Export Plug-In . SVG Version: 6.00 Build 0)  -->
<svg version="1.1" xmlns="http://www.w3.org/2000/svg" xmlns:xlink="http://www.w3.org/1999/xlink" x="0px" y="0px"
	 viewBox="0 0 1366 768" style="enable-background:new 0 0 1366 768;" xml:space="preserve">
<style type="text/css">
	.st0{fill:#1A1A1A;}
	.st1{fill:none;stroke:#FFFFFF;stroke-width:13;stroke-miterlimit:10;}
</style>
<g id="Layer_1">
	<g>
		<rect x="0.5" y="-5.5" class="st0" width="1372" height="784"/>
		<path d="M1372-5v783H1V-5H1372 M1373-6H0v785h1373V-6L1373-6z"/>
	</g>
</g>
<g id="Layer_2">
	<ellipse class="st1" cx="683.39" cy="372.87" rx="174.25" ry="180.75"/>
	<g>
		<path class="st1" d="M795.2,451.89H571.15c-9.58,0-17.34-7.76-17.34-17.34v-124.2c0-9.58,7.76-17.34,17.34-17.34H795.2
			c9.58,0,17.34,7.76,17.34,17.34v124.2C812.54,444.12,804.78,451.89,795.2,451.89z"/>
		<line class="st1" x1="554.26" y1="415.95" x2="813" y2="415.95"/>
		<line class="st1" x1="665.74" y1="453.31" x2="665.99" y2="493.03"/>
		<line class="st1" x1="698.77" y1="452.36" x2="699.02" y2="493.03"/>
		<line class="st1" x1="645.1" y1="493.5" x2="721.25" y2="493.5"/>
	</g>
</g>
</svg>
